<svg width="16" height="16" viewBox="0 0 16 16" fill="none" xmlns="http://www.w3.org/2000/svg">
<path d="M13.8011 6.16549L13.3972 5.18522C13.3972 5.18522 14.3369 3.01954 14.2539 2.93627L13.0096 1.6956C12.9236 1.61007 10.8025 2.59867 10.8025 2.59867L9.82426 2.1952C9.82426 2.1952 8.96012 -2.97784e-09 8.84154 -2.97784e-09H7.08583C6.96355 -2.97784e-09 6.16388 2.19974 6.16388 2.19974L5.18709 2.60472C5.18709 2.60472 3.02154 1.66457 2.93853 1.74859L1.69642 2.99077C1.61045 3.07631 2.5991 5.19809 2.5991 5.19809L2.19519 6.17685C2.19519 6.17685 0 7.04055 0 7.15712V8.91479C0 9.03742 2.20038 9.83754 2.20038 9.83754L2.60429 10.8148C2.60429 10.8148 1.66455 12.9789 1.74682 13.0622L2.99041 14.3059C3.0749 14.3899 5.19672 13.4013 5.19672 13.4013L6.17574 13.8063C6.17574 13.8063 7.03988 16 7.1592 16H8.91491C9.03645 16 9.83686 13.8003 9.83686 13.8003L10.8166 13.3953C10.8166 13.3953 12.9777 14.3354 13.0615 14.2529L14.3051 13.0107C14.3918 12.9237 13.4009 10.8034 13.4009 10.8034L13.8041 9.82467C13.8041 9.82467 16 8.95946 16 8.84137V7.08521C16.0007 6.96334 13.8011 6.16549 13.8011 6.16549ZM10.5654 7.99962C10.5654 9.41288 9.41442 10.5635 8.00037 10.5635C6.5878 10.5635 5.43536 9.41288 5.43536 7.99962C5.43536 6.58637 6.5878 5.43729 8.00037 5.43729C9.41516 5.43805 10.5654 6.58637 10.5654 7.99962Z" fill="#333333"/>
</svg>
