<svg width="5" height="35" viewBox="0 0 5 35" fill="none" xmlns="http://www.w3.org/2000/svg">
<rect width="2" height="2.4" fill="#E4E8F0"/>
<rect width="2" height="2.4" transform="translate(3)" fill="#E4E8F0"/>
<rect width="2" height="2.4" transform="translate(0 3.6001)" fill="#E4E8F0"/>
<rect width="2" height="2.4" transform="translate(3 3.6001)" fill="#E4E8F0"/>
<rect width="2" height="2.4" transform="translate(0 7.19995)" fill="#E4E8F0"/>
<rect width="2" height="2.4" transform="translate(3 7.19995)" fill="#E4E8F0"/>
<rect width="2" height="2.4" transform="translate(0 10.8)" fill="#E4E8F0"/>
<rect width="2" height="2.4" transform="translate(3 10.8)" fill="#E4E8F0"/>
<rect width="2" height="2.4" transform="translate(0 14.3999)" fill="#E4E8F0"/>
<rect width="2" height="2.4" transform="translate(3 14.3999)" fill="#E4E8F0"/>
<rect width="2" height="2.4" transform="translate(0 18)" fill="#E4E8F0"/>
<rect width="2" height="2.4" transform="translate(3 18)" fill="#E4E8F0"/>
<rect width="2" height="2.4" transform="translate(0 21.6001)" fill="#E4E8F0"/>
<rect width="2" height="2.4" transform="translate(3 21.6001)" fill="#E4E8F0"/>
<rect width="2" height="2.4" transform="translate(0 25.2)" fill="#E4E8F0"/>
<rect width="2" height="2.4" transform="translate(3 25.2)" fill="#E4E8F0"/>
<rect width="2" height="2.4" transform="translate(0 28.8)" fill="#E4E8F0"/>
<rect width="2" height="2.4" transform="translate(3 28.8)" fill="#E4E8F0"/>
<rect width="2" height="2.4" transform="translate(0 32.3999)" fill="#E4E8F0"/>
<rect width="2" height="2.4" transform="translate(3 32.3999)" fill="#E4E8F0"/>
</svg>
