<svg width="12" height="12" viewBox="0 0 12 12" fill="none" xmlns="http://www.w3.org/2000/svg">
<path d="M6.00002 0C2.68631 0 0 2.68629 0 5.99998C0 9.31371 2.68629 12 6.00002 12C9.31375 12 12 9.31371 12 5.99998C12 2.68629 9.31371 0 6.00002 0ZM6.72975 8.83604C6.72975 9.23904 6.40302 9.56576 6.00002 9.56576C5.59698 9.56576 5.27029 9.23908 5.27029 8.83604V6.14292C5.0729 6.01233 4.94267 5.78827 4.94267 5.53386C4.94267 5.13086 5.26939 4.80414 5.67239 4.80414H6.00002C6.40302 4.80414 6.72975 5.13086 6.72975 5.53386V8.83604ZM6.00002 4.39635C5.46265 4.39635 5.02704 3.96076 5.02704 3.42341C5.02704 2.88606 5.46265 2.45043 6.00002 2.45043C6.53731 2.45043 6.973 2.88604 6.973 3.42341C6.973 3.96078 6.53731 4.39635 6.00002 4.39635Z" fill="#004C92"/>
</svg>
