<svg xmlns="http://www.w3.org/2000/svg" xmlns:xlink="http://www.w3.org/1999/xlink" width="690" height="136" viewBox="0 0 690 136">
  <defs>
    <path id="wb-logowhite-a" d="M56.602,0.966 L56.602,1.007 L56.367,1.007 C50.929,1.951 45.711,3.549 40.799,5.715 L40.799,5.747 L40.726,5.747 C34.17,8.647 28.155,12.562 22.888,17.29 L22.888,17.336 L22.837,17.336 C22.678,17.479 22.519,17.624 22.361,17.768 L22.361,17.864 L22.257,17.864 C20.83,19.177 19.456,20.554 18.147,21.984 L18.147,22.078 L18.061,22.078 C17.913,22.24 17.767,22.402 17.62,22.566 L17.62,22.605 L17.585,22.605 C16.689,23.608 15.822,24.638 14.986,25.694 L14.986,25.766 L14.929,25.766 C14.409,26.424 13.901,27.092 13.406,27.77 L13.406,27.873 L13.331,27.873 C12.242,29.368 11.211,30.911 10.245,32.495 L10.245,32.614 L10.173,32.614 C9.26,34.116 8.407,35.655 7.611,37.231 L7.611,37.355 L7.549,37.355 C7.391,37.669 7.237,37.982 7.084,38.299 L7.084,38.408 L7.032,38.408 C6.871,38.743 6.713,39.078 6.557,39.416 L6.557,39.462 L6.536,39.462 C5.981,40.67 5.461,41.897 4.977,43.142 L4.977,43.149 L4.974,43.149 C4.795,43.61 4.62,44.076 4.451,44.541 L4.451,44.73 L4.382,44.73 C3.589,46.933 2.908,49.185 2.344,51.487 L2.344,51.578 L2.321,51.578 C1.914,53.25 1.569,54.945 1.29,56.663 L1.29,56.845 L1.26,56.845 C0.701,60.337 0.411,63.914 0.411,67.561 C0.411,69.273 0.477,70.97 0.605,72.649 L0.763,72.649 L0.763,74.417 C0.977,76.491 1.285,78.536 1.683,80.551 L1.816,80.551 L1.816,81.211 C1.953,81.872 2.1,82.531 2.257,83.185 L2.344,83.185 L2.344,83.545 C2.551,84.395 2.775,85.239 3.014,86.077 C3.117,86.473 3.209,86.868 3.329,87.263 C3.352,87.337 3.386,87.405 3.415,87.484 C3.57,87.985 3.731,88.484 3.897,88.98 L3.924,88.98 L3.924,89.059 C4.093,89.561 4.269,90.063 4.449,90.56 L4.451,90.56 L4.451,90.564 C4.578,90.914 4.709,91.265 4.842,91.613 L4.977,91.613 L4.977,91.964 C5.137,92.376 5.301,92.786 5.469,93.194 L5.504,93.194 L5.504,93.277 C5.637,93.601 5.775,93.926 5.913,94.248 L6.031,94.248 L6.031,94.518 C6.937,96.591 7.943,98.61 9.045,100.569 L9.192,100.569 L9.192,100.828 C9.343,101.094 9.495,101.358 9.65,101.622 L9.718,101.622 L9.718,101.738 C10.008,102.23 10.304,102.719 10.606,103.203 L10.772,103.203 L10.772,103.468 C10.939,103.732 11.107,103.995 11.277,104.257 L11.299,104.257 L11.299,104.29 C11.637,104.811 11.983,105.326 12.335,105.837 L12.353,105.837 L12.353,105.862 C12.838,106.566 13.338,107.26 13.849,107.944 L13.933,107.944 L13.933,108.055 C14.441,108.731 14.96,109.396 15.492,110.052 L15.513,110.052 L15.513,110.078 C15.65,110.246 15.785,110.411 15.923,110.578 L16.04,110.578 L16.04,110.718 C16.148,110.848 16.255,110.976 16.364,111.105 L16.566,111.105 L16.566,111.343 C17.578,112.53 18.628,113.678 19.719,114.792 L19.727,114.792 L19.727,114.8 C19.898,114.975 20.068,115.147 20.241,115.319 L20.254,115.319 L20.254,115.332 C20.426,115.505 20.599,115.675 20.773,115.846 L20.781,115.846 L20.781,115.853 C21.896,116.943 23.05,117.996 24.237,119.007 L24.468,119.007 L24.468,119.202 C24.6,119.313 24.731,119.423 24.863,119.533 L24.995,119.533 L24.995,119.642 C25.164,119.782 25.335,119.922 25.506,120.061 L25.522,120.061 L25.522,120.074 C26.883,121.176 28.287,122.226 29.732,123.221 L29.736,123.221 L29.736,123.224 C29.992,123.4 30.249,123.575 30.507,123.748 L30.79,123.748 L30.79,123.936 C30.961,124.049 31.134,124.163 31.306,124.274 L31.316,124.274 L31.316,124.281 C31.587,124.456 31.858,124.629 32.131,124.801 L32.37,124.801 L32.37,124.95 C32.866,125.259 33.362,125.559 33.866,125.855 L33.951,125.855 L33.951,125.905 C34.225,126.065 34.501,126.224 34.778,126.381 L35.004,126.381 L35.004,126.508 C36.606,127.408 38.253,128.246 39.933,129.016 L40.271,129.016 L40.271,129.169 C40.551,129.295 40.831,129.42 41.112,129.542 L41.325,129.542 L41.325,129.634 C41.668,129.782 42.013,129.927 42.359,130.069 L42.379,130.069 L42.379,130.078 C42.81,130.255 43.244,130.428 43.679,130.596 L43.96,130.596 L43.96,130.704 C45.368,131.241 46.799,131.733 48.251,132.176 L48.701,132.176 L48.701,132.312 C49.153,132.447 49.607,132.577 50.064,132.703 L50.808,132.703 L50.808,132.903 C51.239,133.016 51.672,133.125 52.106,133.23 L52.915,133.23 L52.915,133.42 C53.433,133.538 53.951,133.65 54.473,133.757 L55.021,133.757 L55.021,133.866 C55.806,134.019 56.594,134.158 57.388,134.283 L57.656,134.283 L57.656,134.325 C58.952,134.524 60.257,134.686 61.576,134.811 L63.977,134.811 L63.977,134.994 C65.296,135.071 66.627,135.11 67.965,135.11 C69.279,135.11 70.584,135.073 71.879,134.998 L71.879,134.811 L74.353,134.811 C76.545,134.604 78.707,134.292 80.834,133.88 L80.834,133.757 L81.454,133.757 C82.129,133.619 82.801,133.472 83.469,133.314 L83.469,133.23 L83.82,133.23 C84.408,133.088 84.994,132.938 85.576,132.781 L85.576,132.703 L85.862,132.703 C87.009,132.387 88.141,132.043 89.263,131.669 L89.263,131.65 L89.321,131.65 C90.188,131.36 91.046,131.053 91.897,130.73 L91.897,130.596 L92.247,130.596 C92.659,130.436 93.069,130.273 93.478,130.106 L93.478,130.069 L93.567,130.069 C93.889,129.937 94.211,129.802 94.531,129.664 L94.531,129.542 L94.814,129.542 C96.882,128.642 98.897,127.642 100.852,126.548 L100.852,126.381 L101.148,126.381 C101.402,126.237 101.654,126.092 101.906,125.945 L101.906,125.855 L102.061,125.855 C102.899,125.363 103.725,124.853 104.539,124.327 L104.539,124.274 L104.62,124.274 C105.028,124.01 105.432,123.742 105.834,123.469 C105.943,123.41 106.05,123.353 106.153,123.284 C106.797,122.847 107.417,122.389 108.019,121.909 C108.804,121.329 109.576,120.733 110.335,120.12 L110.335,120.061 L110.409,120.061 C110.56,119.938 110.711,119.815 110.861,119.691 L110.861,119.533 L111.052,119.533 C111.164,119.44 111.277,119.346 111.389,119.252 L111.389,119.007 L111.679,119.007 C112.476,118.328 113.257,117.633 114.022,116.918 L114.022,116.9 L114.042,116.9 C114.212,116.741 114.38,116.582 114.548,116.422 L114.548,116.372 L114.6,116.372 C114.76,116.22 114.918,116.067 115.076,115.914 L115.076,115.846 L115.145,115.846 C115.298,115.696 115.451,115.546 115.602,115.395 L115.602,115.319 L115.678,115.319 C115.829,115.169 115.98,115.017 116.129,114.865 L116.129,114.792 L116.201,114.792 C116.531,114.454 116.859,114.113 117.183,113.768 L117.183,113.739 L117.21,113.739 C117.921,112.982 118.614,112.209 119.29,111.42 L119.29,111.105 L119.558,111.105 C119.644,111.002 119.731,110.899 119.817,110.796 L119.817,110.578 L119.998,110.578 C120.114,110.439 120.229,110.298 120.343,110.158 L120.343,110.052 L120.43,110.052 C120.757,109.649 121.079,109.242 121.397,108.831 L121.397,108.471 L121.674,108.471 C121.758,108.362 121.841,108.252 121.924,108.142 L121.924,107.944 L122.073,107.944 C122.2,107.775 122.325,107.605 122.45,107.435 L122.45,107.417 L122.463,107.417 C123.188,106.429 123.886,105.421 124.557,104.393 L124.557,104.257 L124.646,104.257 C124.975,103.751 125.296,103.242 125.611,102.727 L125.611,102.676 L125.642,102.676 C125.809,102.402 125.974,102.128 126.138,101.852 L126.138,101.622 L126.273,101.622 C126.405,101.397 126.535,101.172 126.665,100.945 L126.665,100.569 L126.878,100.569 C126.983,100.382 127.088,100.194 127.192,100.005 L127.192,99.515 L127.458,99.515 C127.545,99.354 127.632,99.191 127.718,99.029 L127.718,98.989 L127.739,98.989 C127.911,98.664 128.079,98.338 128.245,98.01 L128.245,97.935 L128.284,97.935 C128.449,97.608 128.612,97.279 128.772,96.949 L128.772,96.882 L128.805,96.882 C128.972,96.536 129.137,96.187 129.298,95.838 L129.298,95.828 L129.303,95.828 C129.668,95.04 130.018,94.244 130.352,93.439 L130.352,93.194 L130.454,93.194 C130.599,92.842 130.74,92.49 130.879,92.136 L130.879,91.613 L131.081,91.613 C131.191,91.325 131.3,91.034 131.406,90.744 L131.406,90.033 L131.662,90.033 C131.754,89.774 131.844,89.514 131.933,89.253 L131.933,88.98 L132.025,88.98 C132.174,88.535 132.319,88.087 132.459,87.637 L132.459,87.4 L132.533,87.4 C132.69,86.889 132.841,86.376 132.987,85.86 L132.987,85.819 L132.998,85.819 C133.171,85.204 133.335,84.587 133.491,83.965 C133.708,83.253 133.899,82.532 134.059,81.8 C134.094,81.631 134.104,81.458 134.114,81.289 C134.279,80.489 134.43,79.685 134.567,78.875 L134.567,76.863 L134.876,76.863 C134.956,76.288 135.028,75.71 135.094,75.13 L135.094,72.123 L135.364,72.123 C135.465,70.614 135.518,69.092 135.518,67.561 C135.518,66.089 135.471,64.624 135.378,63.167 L135.094,63.167 L135.094,59.926 C135.018,59.249 134.932,58.573 134.835,57.899 L134.567,57.899 L134.567,56.18 C134.305,54.634 133.989,53.099 133.62,51.578 L133.513,51.578 L133.513,51.144 C133.417,50.76 133.319,50.379 133.216,49.997 L132.987,49.997 L132.987,49.165 C132.916,48.916 132.844,48.666 132.77,48.417 L132.459,48.417 L132.459,47.393 C132.346,47.031 132.23,46.671 132.11,46.31 L131.933,46.31 L131.933,45.782 C131.813,45.43 131.69,45.079 131.564,44.73 L131.406,44.73 L131.406,44.294 C131.266,43.912 131.122,43.53 130.974,43.149 L130.879,43.149 L130.879,42.905 C130.663,42.356 130.441,41.809 130.21,41.264 C129.613,39.855 128.107,39.107 126.665,39.414 L126.665,39.462 L126.469,39.462 C126.343,39.497 126.218,39.541 126.094,39.593 C125.413,39.88 124.886,40.381 124.557,40.983 L124.557,41.042 L124.526,41.042 C124.111,41.844 124.042,42.817 124.421,43.708 C127.615,51.262 129.235,59.284 129.235,67.561 C129.235,72.628 128.604,77.553 127.436,82.269 C126.508,85.245 124.877,87.994 122.625,90.492 C122.679,89.422 122.716,88.347 122.719,87.247 C122.722,85.9 122.682,84.546 122.602,83.185 L122.45,83.185 L122.45,81.13 C122.325,79.713 122.155,78.29 121.942,76.863 L121.924,76.863 L121.924,76.743 C121.798,75.906 121.657,75.069 121.501,74.23 L121.397,74.23 L121.397,73.684 C121.263,72.988 121.119,72.292 120.964,71.596 L120.87,71.596 L120.87,71.177 C120.422,69.209 119.895,67.239 119.29,65.274 L119.29,65.272 C119.128,64.746 118.96,64.219 118.787,63.694 L118.763,63.694 L118.763,63.621 C118.597,63.118 118.426,62.616 118.25,62.114 L118.237,62.114 L118.237,62.076 C117.621,60.325 116.945,58.581 116.209,56.845 L116.129,56.845 L116.129,56.657 C115.477,55.13 114.779,53.612 114.036,52.104 L114.022,52.104 L114.022,52.075 C113.853,51.733 113.683,51.392 113.509,51.051 L113.495,51.051 L113.495,51.024 C113.406,50.849 113.316,50.673 113.225,50.498 C113.877,49.939 114.493,49.362 115.076,48.766 L115.076,48.417 L115.411,48.417 C115.475,48.349 115.539,48.281 115.602,48.213 L115.602,47.89 L115.896,47.89 C115.974,47.803 116.052,47.715 116.129,47.627 L116.129,47.364 L116.355,47.364 C116.457,47.244 116.557,47.124 116.656,47.003 L116.656,46.837 L116.791,46.837 C116.924,46.672 117.055,46.506 117.183,46.338 L117.183,46.31 L117.204,46.31 C117.377,46.084 117.545,45.855 117.709,45.625 L117.709,45.256 L117.967,45.256 C118.058,45.123 118.148,44.988 118.237,44.853 L118.237,44.73 L118.317,44.73 C118.665,44.192 118.989,43.644 119.29,43.086 L119.29,42.623 L119.533,42.623 C119.63,42.432 119.725,42.239 119.817,42.046 L119.817,41.569 L120.037,41.569 C120.144,41.332 120.246,41.094 120.343,40.853 L120.343,39.988 L120.676,39.988 C120.743,39.802 120.808,39.616 120.87,39.428 L120.87,38.935 L121.027,38.935 C121.165,38.487 121.288,38.035 121.397,37.578 L121.397,37.355 L121.45,37.355 C121.521,37.044 121.586,36.732 121.644,36.417 C121.961,34.71 120.831,33.072 119.126,32.761 C117.419,32.44 115.777,33.572 115.465,35.28 C114.806,38.835 112.962,42.095 110.071,44.872 C109.172,43.386 108.238,41.916 107.248,40.463 C106.897,39.949 106.543,39.439 106.184,38.935 L106.12,38.935 L106.12,38.844 C105.635,38.163 105.144,37.492 104.645,36.828 L104.539,36.828 L104.539,36.688 C104.442,36.559 104.344,36.43 104.246,36.301 L104.013,36.301 L104.013,35.997 C103.683,35.568 103.35,35.142 103.014,34.721 L102.959,34.721 L102.959,34.652 C102.837,34.499 102.715,34.346 102.592,34.194 L102.433,34.194 L102.433,33.998 C102.343,33.887 102.253,33.777 102.163,33.667 L101.906,33.667 L101.906,33.355 C101.404,32.749 100.897,32.15 100.383,31.56 L100.326,31.56 L100.326,31.495 C100.191,31.34 100.056,31.187 99.921,31.033 L99.799,31.033 L99.799,30.896 C98.212,29.107 96.569,27.395 94.879,25.766 L94.531,25.766 L94.531,25.431 C94.463,25.367 94.395,25.302 94.327,25.238 L94.004,25.238 L94.004,24.933 C93.925,24.859 93.846,24.786 93.767,24.712 L93.478,24.712 L93.478,24.444 C93.384,24.357 93.29,24.271 93.197,24.185 L92.95,24.185 L92.95,23.961 C92.839,23.86 92.727,23.758 92.615,23.658 L92.424,23.658 L92.424,23.487 C92.291,23.368 92.157,23.249 92.024,23.131 L91.897,23.131 L91.897,23.02 C91.739,22.881 91.58,22.743 91.421,22.605 L91.37,22.605 L91.37,22.56 C90.267,21.607 89.146,20.687 88.01,19.802 C97.474,20.423 106.225,22.72 113.27,26.656 C114.128,27.146 115.206,27.244 116.129,26.858 L116.129,26.819 L116.219,26.819 C116.452,26.712 116.674,26.574 116.878,26.403 C118.211,25.297 118.389,23.311 117.275,21.972 C116.918,21.473 116.552,20.981 116.176,20.497 L116.129,20.497 L116.129,20.436 C114.994,18.979 113.776,17.594 112.481,16.283 L112.441,16.283 L112.441,16.244 C112.279,16.08 112.116,15.918 111.952,15.757 L111.915,15.757 L111.915,15.721 C111.746,15.555 111.577,15.392 111.405,15.229 L111.389,15.229 L111.389,15.214 C110.223,14.109 108.996,13.059 107.716,12.069 L107.7,12.069 L107.7,12.057 C107.241,11.702 106.775,11.355 106.302,11.016 L106.12,11.016 L106.12,10.885 C104.295,9.588 102.365,8.401 100.339,7.327 L100.326,7.327 L100.326,7.321 C99.993,7.145 99.656,6.971 99.318,6.801 L99.272,6.801 L99.272,6.777 C98.932,6.607 98.588,6.439 98.242,6.274 L98.219,6.274 L98.219,6.263 C97.042,5.704 95.835,5.18 94.599,4.694 L94.531,4.694 L94.531,4.667 C94.094,4.496 93.652,4.329 93.208,4.167 L92.95,4.167 L92.95,4.073 C91.423,3.523 89.853,3.027 88.244,2.587 L88.209,2.587 L88.209,2.577 C87.542,2.395 86.869,2.223 86.188,2.06 L86.102,2.06 L86.102,2.039 C84.409,1.636 82.675,1.291 80.903,1.007 L80.308,1.007 L80.308,0.914 C76.374,0.315 72.25,0.01 67.965,0.01 C64.094,0.01 60.297,0.338 56.602,0.966 M61.123,6.685 C63.344,6.432 65.595,6.295 67.881,6.295 C68.949,6.306 70.262,7.591 71.638,10.078 C70.942,9.783 70.241,9.482 69.543,9.219 C68.767,8.921 67.994,8.642 67.223,8.381 L67.138,8.381 L67.138,8.353 C66.621,8.178 66.105,8.013 65.59,7.855 L65.03,7.855 L65.03,7.686 C64.606,7.561 64.183,7.441 63.76,7.327 L63.451,7.327 L63.451,7.245 C62.672,7.039 61.896,6.853 61.123,6.685 M76.352,6.749 C78.902,7.033 81.62,7.47 84.417,8.128 C82.664,9.061 80.851,10.246 79.007,11.653 C78.749,11.067 78.484,10.503 78.212,9.962 L78.2,9.962 L78.2,9.937 C77.614,8.769 76.998,7.705 76.352,6.749 M86.934,13.475 C89.095,12.079 91.078,11.126 92.739,10.726 C95.889,11.995 99.015,13.602 101.974,15.641 C100.551,15.287 99.1,14.975 97.626,14.703 L97.165,14.703 L97.165,14.619 C94.704,14.182 92.178,13.857 89.603,13.649 L89.263,13.649 L89.263,13.622 C88.491,13.563 87.714,13.514 86.934,13.475 M35.96,21.756 C36.656,18.496 38.615,15.582 41.65,13.17 C48.982,10.984 57.515,11.511 66.484,14.792 C65.824,14.907 65.164,15.029 64.504,15.157 L64.504,15.229 L64.137,15.229 C63.381,15.379 62.626,15.538 61.87,15.706 L61.87,15.757 L61.644,15.757 C61.016,15.898 60.389,16.045 59.763,16.2 L59.763,16.283 L59.425,16.283 C58.834,16.431 58.245,16.584 57.656,16.744 L57.656,16.81 L57.414,16.81 C56.679,17.011 55.945,17.222 55.213,17.443 C54.797,17.568 54.382,17.696 53.968,17.826 L53.968,17.864 L53.85,17.864 C53.361,18.019 52.874,18.178 52.388,18.341 L52.388,18.39 L52.242,18.39 C51.762,18.552 51.284,18.718 50.808,18.887 L50.808,18.917 L50.724,18.917 C49.867,19.222 49.017,19.54 48.173,19.869 L48.173,19.971 L47.913,19.971 C45.479,20.928 43.105,21.982 40.799,23.123 L40.799,23.131 L40.781,23.131 C40.434,23.303 40.089,23.477 39.745,23.653 L39.745,23.658 L39.735,23.658 C38.382,24.35 37.053,25.072 35.751,25.823 C35.615,24.448 35.68,23.084 35.96,21.756 M30.064,19.47 C29.977,19.792 29.886,20.113 29.821,20.445 C29.791,20.583 29.763,20.721 29.736,20.86 L29.736,21.025 L29.705,21.025 C29.29,23.285 29.284,25.58 29.673,27.873 L29.736,27.873 L29.736,28.226 C29.813,28.635 29.902,29.044 30.003,29.453 C29.559,29.76 29.119,30.07 28.683,30.383 L28.683,30.506 L28.513,30.506 C28.038,30.849 27.568,31.197 27.103,31.548 L27.103,31.56 L27.087,31.56 C26.916,31.689 26.745,31.82 26.575,31.95 L26.575,32.086 L26.399,32.086 C26.282,32.177 26.165,32.268 26.049,32.359 L26.049,32.614 L25.724,32.614 C25.301,32.948 24.883,33.285 24.468,33.627 L24.468,33.667 L24.42,33.667 C24.26,33.799 24.101,33.931 23.942,34.064 L23.942,34.194 L23.787,34.194 C23.663,34.299 23.538,34.405 23.414,34.51 L23.414,34.721 L23.169,34.721 C21.983,35.741 20.835,36.791 19.727,37.87 L19.727,37.882 L19.715,37.882 C19.543,38.049 19.371,38.218 19.201,38.387 L19.201,38.408 L19.18,38.408 C19.01,38.577 18.841,38.746 18.673,38.916 L18.673,38.935 L18.655,38.935 C18.485,39.108 18.315,39.281 18.147,39.456 L18.147,39.462 L18.141,39.462 C17.422,40.206 16.721,40.963 16.04,41.732 L16.04,42.095 L15.721,42.095 C15.651,42.175 15.582,42.254 15.513,42.334 L15.513,42.623 L15.265,42.623 C15.172,42.732 15.078,42.841 14.986,42.951 L14.986,43.149 L14.819,43.149 C14.698,43.293 14.579,43.437 14.459,43.581 L14.459,43.676 L14.382,43.676 C13.799,44.384 13.233,45.102 12.684,45.83 C12.572,45.977 12.462,46.125 12.353,46.272 L12.353,46.31 L12.324,46.31 C11.973,46.784 11.632,47.26 11.299,47.737 L11.299,47.89 L11.192,47.89 C10.348,49.109 9.561,50.34 8.824,51.578 C12.303,38.714 19.879,27.52 30.064,19.47 M43.581,39.493 C40.982,37.06 39.007,34.521 37.675,31.977 C43.564,28.436 50.079,25.55 57.02,23.458 C61.148,22.22 65.327,21.298 69.494,20.661 C69.236,20.951 68.977,21.244 68.719,21.541 L68.719,21.551 L68.71,21.551 C68.186,22.152 67.662,22.767 67.138,23.395 L67.138,23.658 L66.92,23.658 C66.817,23.783 66.714,23.907 66.611,24.033 L66.611,24.185 L66.486,24.185 C66.352,24.349 66.218,24.513 66.084,24.679 L66.084,24.712 L66.058,24.712 C65.715,25.136 65.372,25.565 65.03,25.999 L65.03,26.292 L64.801,26.292 C64.702,26.419 64.603,26.546 64.504,26.673 L64.504,26.819 L64.391,26.819 C63.901,27.452 63.411,28.097 62.923,28.752 L62.923,28.926 L62.794,28.926 C61.42,30.775 60.057,32.708 58.71,34.716 L58.71,34.721 L58.707,34.721 C58.531,34.982 58.357,35.243 58.182,35.507 L58.182,35.775 L58.005,35.775 C57.713,36.219 57.42,36.666 57.129,37.117 L57.129,37.355 L56.976,37.355 C56.675,37.823 56.374,38.295 56.075,38.77 L56.075,38.935 L55.972,38.935 C55.654,39.441 55.337,39.952 55.021,40.466 L55.021,40.515 L54.992,40.515 C54.826,40.785 54.66,41.057 54.495,41.33 L54.495,41.569 L54.351,41.569 C54.046,42.074 53.743,42.581 53.441,43.093 L53.441,43.149 L53.408,43.149 C52.923,43.971 52.442,44.802 51.964,45.641 C48.821,43.818 45.996,41.759 43.581,39.493 M70.43,52.584 C65.883,51.62 61.559,50.224 57.579,48.475 C63.442,38.214 69.856,29.3 76.181,22.668 C78.16,30.443 79.816,40.9 80.511,53.864 C77.181,53.732 73.793,53.311 70.43,52.584 M82.886,23.8 C90.031,29.121 96.581,35.98 102.058,44.002 C103.093,45.525 104.075,47.074 105.005,48.633 C99.985,51.531 93.638,53.269 86.79,53.758 C86.751,53.03 86.708,52.302 86.663,51.578 L86.63,51.578 L86.63,51.057 C86.514,49.283 86.38,47.523 86.226,45.784 L86.102,45.784 L86.102,44.432 C85.96,42.933 85.803,41.451 85.632,39.988 L85.576,39.988 L85.576,39.516 C85.424,38.252 85.262,37.005 85.088,35.775 L85.049,35.775 L85.049,35.502 C84.91,34.528 84.763,33.564 84.61,32.614 L84.522,32.614 L84.522,32.075 C84.405,31.369 84.285,30.67 84.16,29.979 L83.995,29.979 L83.995,29.083 C83.852,28.318 83.704,27.563 83.55,26.819 L83.469,26.819 L83.469,26.426 C83.282,25.534 83.088,24.659 82.886,23.8 M20.007,82.189 C14.667,77.258 10.998,72.038 9.13,66.85 C10.609,61.039 13.478,55.202 17.697,49.618 C21.703,44.314 26.678,39.547 32.393,35.443 C32.551,35.729 32.716,36.016 32.887,36.301 L32.897,36.301 L32.897,36.317 C33.211,36.841 33.546,37.363 33.901,37.882 L33.951,37.882 L33.951,37.954 C35.397,40.054 37.179,42.107 39.284,44.082 C39.903,44.661 40.546,45.228 41.209,45.784 L41.325,45.784 L41.325,45.88 C41.499,46.024 41.674,46.168 41.85,46.31 L41.852,46.31 L41.852,46.311 C42.983,47.225 44.173,48.103 45.417,48.944 L45.54,48.944 L45.54,49.027 C46.03,49.357 46.527,49.68 47.033,49.997 L47.12,49.997 L47.12,50.052 C47.717,50.425 48.324,50.79 48.941,51.146 C48.684,51.634 48.428,52.124 48.173,52.616 L48.173,52.632 L48.166,52.632 C47.992,52.967 47.819,53.303 47.647,53.641 L47.647,53.685 L47.625,53.685 C47.456,54.015 47.288,54.347 47.12,54.68 L47.12,54.738 L47.091,54.738 C46.732,55.452 46.377,56.17 46.025,56.893 C45.862,57.226 45.701,57.56 45.54,57.895 L45.54,57.899 L45.538,57.899 C44.631,59.786 43.752,61.694 42.906,63.613 L42.906,63.694 L42.87,63.694 C42.343,64.892 41.827,66.096 41.325,67.302 L41.325,67.382 L41.292,67.382 C40.945,68.217 40.605,69.052 40.271,69.889 L40.271,70.015 L40.221,70.015 C39.88,70.873 39.545,71.732 39.218,72.59 L39.218,72.649 L39.196,72.649 C38.462,74.578 37.766,76.506 37.111,78.423 L37.111,78.444 L37.104,78.444 C36.928,78.961 36.754,79.478 36.584,79.993 L36.584,80.024 L36.574,80.024 C35.591,83 34.712,85.946 33.951,88.828 L33.951,88.98 L33.911,88.98 C33.671,89.891 33.444,90.795 33.228,91.693 C28.271,88.895 23.81,85.708 20.007,82.189 M60.755,101.908 C52.972,100.237 45.617,97.767 38.961,94.637 C41.144,84.802 45.217,72.881 51.672,59.648 C52.608,57.731 53.564,55.85 54.544,54.001 C54.702,54.072 54.861,54.142 55.019,54.212 L55.021,54.212 L55.021,54.213 C55.853,54.578 56.697,54.929 57.553,55.265 L57.656,55.265 L57.656,55.305 C59.621,56.073 61.65,56.765 63.731,57.373 L63.977,57.373 L63.977,57.444 C65.658,57.929 67.372,58.359 69.114,58.732 C69.473,58.809 69.833,58.883 70.192,58.953 L70.826,58.953 L70.826,59.074 C71.636,59.225 72.445,59.36 73.254,59.48 L75.04,59.48 L75.04,59.719 C76.023,59.837 77.004,59.932 77.981,60.006 L79.254,60.006 L79.254,60.09 C79.76,60.119 80.265,60.142 80.769,60.159 C80.836,62.514 80.869,64.943 80.869,67.45 C80.869,82.247 79.688,94.527 77.98,104.12 C72.361,103.878 66.574,103.15 60.755,101.908 M108.028,54.117 C113.516,64.974 116.461,76.427 116.434,87.231 C116.428,90.365 116.16,93.347 115.664,96.155 C112.838,97.888 109.594,99.384 105.934,100.617 C99.446,102.798 92.136,103.988 84.39,104.188 C84.435,103.923 84.478,103.656 84.522,103.389 L84.522,103.203 L84.552,103.203 C84.727,102.113 84.892,101.009 85.049,99.889 L85.049,98.989 L85.173,98.989 C85.315,97.936 85.449,96.872 85.576,95.797 L85.576,94.248 L85.752,94.248 C85.877,93.107 85.994,91.954 86.102,90.794 L86.102,90.033 L86.172,90.033 C86.348,88.066 86.501,86.076 86.63,84.07 L86.63,82.132 L86.746,82.132 C87.02,77.267 87.154,72.332 87.154,67.45 C87.154,64.995 87.119,62.535 87.049,60.075 C87.261,60.061 87.472,60.046 87.682,60.029 L87.682,60.006 L87.974,60.006 C90.402,59.807 92.771,59.461 95.058,58.971 L95.058,58.953 L95.141,58.953 C95.823,58.806 96.498,58.646 97.165,58.473 L97.165,58.426 L97.346,58.426 C101.214,57.409 104.814,55.965 108.028,54.117 M9.049,84.323 C8.512,82.284 8.176,80.203 8.04,78.091 C8.37,78.561 8.713,79.03 9.067,79.497 L9.192,79.497 L9.192,79.662 C9.284,79.783 9.377,79.903 9.471,80.024 L9.718,80.024 L9.718,80.339 C10.053,80.762 10.398,81.184 10.752,81.604 L10.772,81.604 L10.772,81.629 C10.914,81.796 11.057,81.964 11.202,82.132 L11.299,82.132 L11.299,82.243 C11.419,82.382 11.541,82.52 11.664,82.658 L11.825,82.658 L11.825,82.839 C11.929,82.955 12.032,83.07 12.137,83.185 L12.353,83.185 L12.353,83.419 C12.443,83.517 12.533,83.615 12.624,83.712 L12.879,83.712 L12.879,83.983 C12.96,84.068 13.041,84.154 13.123,84.239 L13.406,84.239 L13.406,84.532 C13.481,84.61 13.557,84.688 13.634,84.765 L13.933,84.765 L13.933,85.067 C14.514,85.65 15.116,86.229 15.737,86.804 C16.146,87.182 16.561,87.555 16.984,87.926 L17.093,87.926 L17.093,88.022 C17.258,88.166 17.424,88.31 17.591,88.453 L17.62,88.453 L17.62,88.478 C18.235,89.004 18.862,89.522 19.503,90.033 L19.727,90.033 L19.727,90.211 C19.875,90.328 20.023,90.444 20.173,90.56 L20.254,90.56 L20.254,90.623 C20.916,91.137 21.592,91.643 22.28,92.141 L22.361,92.141 L22.361,92.199 C23.331,92.899 24.327,93.582 25.345,94.248 L25.522,94.248 L25.522,94.363 C26.009,94.68 26.502,94.993 27,95.302 L27.103,95.302 L27.103,95.365 C27.937,95.882 28.787,96.388 29.651,96.882 L29.736,96.882 L29.736,96.931 C30.44,97.333 31.153,97.727 31.874,98.114 C31.662,99.303 31.475,100.473 31.316,101.621 L31.316,102.676 L31.177,102.676 C31.008,104.027 30.878,105.345 30.79,106.626 L30.79,106.891 L30.772,106.891 C30.702,107.972 30.662,109.027 30.653,110.052 L30.79,110.052 L30.79,114.043 C30.858,114.865 30.951,115.662 31.07,116.431 C20.588,108.497 12.743,97.281 9.049,84.323 M40.839,122.383 C37.346,120.682 35.938,112.901 37.76,101.007 C38.222,101.215 38.688,101.42 39.157,101.622 L39.218,101.622 L39.218,101.649 C40.035,102 40.861,102.343 41.694,102.676 L41.852,102.676 L41.852,102.739 C42.246,102.896 42.641,103.05 43.039,103.203 L43.432,103.203 L43.432,103.353 C43.768,103.48 44.105,103.606 44.444,103.73 L44.486,103.73 L44.486,103.745 C44.959,103.919 45.434,104.089 45.911,104.257 L46.066,104.257 L46.066,104.311 C47.059,104.657 48.061,104.99 49.073,105.31 L49.227,105.31 L49.227,105.359 C49.744,105.522 50.264,105.681 50.785,105.837 L50.808,105.837 L50.808,105.844 C51.405,106.022 52.003,106.195 52.606,106.363 L52.915,106.363 L52.915,106.449 C53.46,106.6 54.007,106.747 54.557,106.891 L55.021,106.891 L55.021,107.011 C56.479,107.384 57.953,107.731 59.44,108.049 C60.132,108.196 60.824,108.337 61.515,108.471 L62.397,108.471 L62.397,108.639 C63.074,108.765 63.751,108.884 64.427,108.998 L66.084,108.998 L66.084,109.263 C66.689,109.355 67.293,109.442 67.897,109.524 L70.299,109.524 L70.299,109.824 C71.038,109.908 71.775,109.983 72.51,110.052 L73.986,110.052 L73.986,110.178 C74.9,110.25 75.81,110.309 76.717,110.357 C73.941,122.431 70.376,128.773 68.021,128.773 C67.866,128.773 67.724,128.8 67.578,128.816 C58.225,128.752 49.368,126.603 41.449,122.789 C41.41,122.757 41.371,122.725 41.331,122.694 L41.325,122.694 L41.325,122.689 C41.174,122.571 41.014,122.466 40.839,122.383 M107.939,106.57 C109.814,105.937 111.604,105.242 113.3,104.483 C111.227,109.546 108.18,113.765 104.215,116.91 C96.383,122.679 87.142,126.634 77.107,128.146 C77.299,127.815 77.488,127.474 77.674,127.123 L77.674,126.909 L77.786,126.909 C77.925,126.64 78.064,126.365 78.2,126.085 L78.2,125.855 L78.312,125.855 C78.452,125.562 78.591,125.263 78.727,124.958 L78.727,124.801 L78.798,124.801 C79.136,124.04 79.464,123.243 79.781,122.414 L79.781,122.167 L79.874,122.167 C80.399,120.774 80.895,119.289 81.361,117.723 L81.361,117.426 L81.449,117.426 C81.598,116.917 81.745,116.4 81.888,115.874 L81.888,115.319 L82.038,115.319 C82.166,114.838 82.292,114.35 82.415,113.855 L82.415,113.739 L82.444,113.739 C82.614,113.051 82.78,112.351 82.941,111.639 L82.941,111.632 L82.943,111.632 C83.029,111.252 83.114,110.869 83.197,110.483 C85.065,110.46 86.913,110.384 88.736,110.255 L88.736,110.052 L91.163,110.052 C92.476,109.923 93.775,109.767 95.058,109.582 L95.058,109.524 L95.454,109.524 C96.385,109.386 97.306,109.232 98.219,109.064 L98.219,108.998 L98.571,108.998 C99.16,108.886 99.745,108.768 100.326,108.644 L100.326,108.471 L101.113,108.471 C101.555,108.372 101.996,108.268 102.433,108.161 L102.433,107.944 L103.298,107.944 C103.714,107.837 104.129,107.726 104.539,107.611 L104.539,107.417 L105.225,107.417 C105.702,107.279 106.177,107.136 106.647,106.989 L106.647,106.891 L106.958,106.891 C107.287,106.786 107.614,106.679 107.939,106.57"/>
  </defs>
  <g fill="none" fill-rule="evenodd">
    <path fill="#FFF" d="M195.0855,47.8113 L204.5985,47.8113 L193.2585,87.3103 L183.7595,87.3103 L176.8665,62.5353 L169.8635,87.3103 L160.3685,87.3103 L149.0265,47.8113 L158.8195,47.8113 L165.4535,76.6373 L173.4175,47.8113 L180.4875,47.8113 L188.1855,76.6373 L195.0855,47.8113 Z M223.4845,80.2723 C226.8305,80.2723 232.4395,78.6283 232.4395,67.6133 C232.4395,56.5983 226.8305,54.9543 223.4845,54.9543 C217.6755,54.9543 214.4755,59.4483 214.4755,67.6133 C214.4755,75.7783 217.6755,80.2723 223.4845,80.2723 Z M223.4845,47.4793 C232.0175,47.4793 241.1345,52.7633 241.1345,67.6133 C241.1345,82.3733 232.0175,87.6413 223.4845,87.6413 C214.9285,87.6413 205.7835,82.3733 205.7835,67.6133 C205.7835,52.7633 214.9285,47.4793 223.4845,47.4793 Z M254.3465,66.2803 L259.0465,66.2803 C263.7155,66.2803 266.6175,64.0993 266.6175,60.5913 C266.6175,56.9033 264.0785,54.7863 259.6515,54.7863 L254.3465,54.7863 L254.3465,66.2803 Z M271.7575,75.3363 C273.1465,78.1593 274.3505,80.6033 277.1285,80.6033 L279.1245,80.6033 L279.1245,87.1043 L278.8345,87.1833 C278.7745,87.1993 277.3175,87.5833 274.7515,87.5833 C268.1095,87.5833 266.0675,83.0063 264.2715,78.9813 C262.7965,75.6683 261.5205,72.8183 258.0505,72.8183 L254.3465,72.8183 L254.3465,87.3103 L245.9325,87.3103 L245.9325,47.8113 L259.9315,47.8113 C270.1565,47.8113 274.9225,51.7993 274.9225,60.3643 C274.9225,65.6693 271.7425,68.9403 268.5685,70.3363 C269.9695,71.6953 270.8795,73.5393 271.7575,75.3363 Z M291.5105,47.8113 L283.0935,47.8113 L283.0935,87.3103 L308.5995,87.3103 L308.5995,80.3303 L291.5105,80.3303 L291.5105,47.8113 Z M320.9275,80.3303 L325.8475,80.3303 C331.9035,80.3303 335.5235,75.7623 335.5235,68.1083 C335.5235,59.2743 331.6895,54.7863 324.1335,54.7863 L320.9275,54.7863 L320.9275,80.3303 Z M324.2435,47.8113 C336.5395,47.8113 343.8805,55.4393 343.8805,68.2243 C343.8805,80.3513 337.3305,87.3103 325.9055,87.3103 L312.5135,87.3103 L312.5135,47.8113 L324.2435,47.8113 Z M367.3265,80.3303 L373.9065,80.3303 C378.2055,80.3303 380.2025,78.7123 380.2025,75.2463 C380.2025,71.0003 376.6885,70.1103 373.7335,70.1103 L367.3265,70.1103 L367.3265,80.3303 Z M373.0745,63.9573 C376.5775,63.9573 378.2165,62.4873 378.2165,59.3163 C378.2165,56.3133 376.1295,54.7863 372.0215,54.7863 L367.3265,54.7863 L367.3265,63.9573 L373.0745,63.9573 Z M382.4465,66.4863 C385.4805,67.3603 389.4475,70.1423 389.4475,76.0733 C389.4475,83.2113 384.3845,87.3103 375.5615,87.3103 L358.9095,87.3103 L358.9095,47.8113 L373.9595,47.8113 C382.5095,47.8113 386.8505,51.3833 386.8505,58.4363 C386.8505,63.8893 384.3685,65.8173 382.4465,66.4863 Z M408.9115,58.5793 L404.6445,71.0373 L413.2735,71.0373 L408.9115,58.5793 Z M413.1995,48.0693 L427.6075,87.3103 L418.8625,87.3103 L415.4865,77.6323 L402.3325,77.6323 L399.0665,87.3103 L390.2585,87.3103 L404.7605,47.8113 L413.1055,47.8113 L413.1995,48.0693 Z M452.2035,72.2073 L438.3905,47.8113 L429.8565,47.8113 L429.8565,87.3103 L438.2805,87.3103 L438.2805,63.7523 L452.0345,87.3103 L460.6155,87.3103 L460.6155,47.8113 L452.2035,47.8113 L452.2035,72.2073 Z M499.7825,47.8113 L489.7785,47.8113 L476.7095,65.5903 L476.7095,47.8113 L468.1855,47.8113 L468.1855,87.3103 L476.7095,87.3103 L476.7095,69.1353 L490.1105,87.3103 L500.2305,87.3103 L484.9425,67.3923 L499.7825,47.8113 Z M524.9785,72.8703 L533.6605,72.8703 L533.6605,73.3083 C533.6605,75.8733 532.7545,80.1613 526.6965,80.1613 C520.9855,80.1613 517.5775,75.4733 517.5775,67.6133 C517.5775,59.5693 520.8385,54.9543 526.5275,54.9543 C533.2965,54.9543 533.5395,61.8033 533.5445,62.0923 L533.5605,62.5353 L541.4095,61.3133 L541.4095,60.9753 C541.4095,58.1263 538.8705,47.4793 526.4225,47.4793 C515.2705,47.4793 508.8805,54.8173 508.8805,67.6133 C508.8805,80.1503 515.4805,87.6413 526.5275,87.6413 C537.6325,87.6413 541.5775,79.8923 541.5775,73.2553 L541.5775,66.3913 L524.9785,66.3913 L524.9785,72.8703 Z M555.7855,66.2803 L560.4785,66.2803 C565.1515,66.2803 568.0545,64.0993 568.0545,60.5913 C568.0545,56.9033 565.5155,54.7863 561.0905,54.7863 L555.7855,54.7863 L555.7855,66.2803 Z M573.1955,75.3363 C574.5865,78.1593 575.7875,80.6033 578.5635,80.6033 L580.5605,80.6033 L580.5605,87.1043 L580.2755,87.1833 C580.2125,87.1993 578.7535,87.5833 576.1935,87.5833 C569.5445,87.5833 567.5065,83.0063 565.7045,78.9813 C564.2345,75.6683 562.9545,72.8183 559.4835,72.8183 L555.7855,72.8183 L555.7855,87.3103 L547.3725,87.3103 L547.3725,47.8113 L561.3695,47.8113 C571.5995,47.8113 576.3615,51.7993 576.3615,60.3643 C576.3615,65.6693 573.1795,68.9403 570.0035,70.3363 C571.4045,71.6953 572.3155,73.5393 573.1955,75.3363 Z M599.5775,80.2723 C602.9275,80.2723 608.5325,78.6283 608.5325,67.6133 C608.5325,56.5983 602.9275,54.9543 599.5775,54.9543 C593.7715,54.9543 590.5685,59.4483 590.5685,67.6133 C590.5685,75.7783 593.7715,80.2723 599.5775,80.2723 Z M599.5775,47.4793 C608.1105,47.4793 617.2245,52.7633 617.2245,67.6133 C617.2245,82.3733 608.1105,87.6413 599.5775,87.6413 C591.0215,87.6413 581.8775,82.3733 581.8775,67.6133 C581.8775,52.7633 591.0215,47.4793 599.5775,47.4793 Z M644.7065,71.4853 C644.7065,77.2853 642.4785,80.1083 637.9005,80.1083 C633.2805,80.1083 630.9415,77.2063 630.9415,71.4853 L630.9415,47.8113 L622.5235,47.8113 L622.5235,70.9263 C622.4975,76.5793 623.9095,80.8723 626.7175,83.6903 C629.3245,86.3093 633.0855,87.6413 637.9005,87.6413 C644.8435,87.6413 653.1145,84.7393 653.1145,70.9323 L653.1145,47.8113 L644.7065,47.8113 L644.7065,71.4853 Z M668.5965,67.7713 L673.6275,67.7713 C678.5055,67.7713 680.9765,65.6383 680.9765,61.4183 C680.9765,57.1403 678.2685,54.7863 673.3535,54.7863 L668.5965,54.7863 L668.5965,67.7713 Z M673.9595,47.8113 C683.9475,47.8113 689.4525,52.6423 689.4525,61.4183 C689.4525,69.6993 684.0315,74.6463 674.9545,74.6463 L668.5965,74.6463 L668.5965,87.3103 L660.1835,87.3103 L660.1835,47.8113 L673.9595,47.8113 Z"/>
    <use fill="#FFF" xlink:href="#wb-logowhite-a"/>
  </g>
</svg>
