<svg width="20" height="20" viewBox="0 0 20 20" fill="none" xmlns="http://www.w3.org/2000/svg">
<rect width="20" height="20" fill="white"/>
<path d="M9 2.64092e-08C5.29295 2.64092e-08 2.01132 1.9719 0 4.99986C2.01132 8.0281 5.29295 10 9 10C12.7073 10 15.989 8.0281 18 4.99986C15.989 1.9719 12.7073 2.64092e-08 9 2.64092e-08ZM9 0.769031C9.90144 0.769031 10.749 1.12932 11.3862 1.78286C12.024 2.43668 12.375 3.30603 12.375 4.23054C12.375 5.15534 12.024 6.02468 11.3862 6.67822C10.749 7.33176 9.90144 7.69233 9 7.69233C8.09856 7.69233 7.25098 7.33176 6.61321 6.67822C5.976 6.02468 5.625 5.15537 5.625 4.23054C5.625 3.30603 5.976 2.43668 6.61321 1.78286C7.25098 1.12932 8.09856 0.769031 9 0.769031ZM15.7594 6.49231C15.1518 7.06472 14.4833 7.55939 13.773 7.96222C13.0512 8.3718 12.2855 8.6873 11.4967 8.90029C10.6848 9.11944 9.84487 9.23043 9 9.23043C8.15513 9.23043 7.31524 9.11944 6.50334 8.90029C5.71451 8.68733 4.94905 8.37183 4.22726 7.96222C3.51671 7.55939 2.84846 7.06472 2.24065 6.49231C1.76055 6.03935 1.31861 5.53902 0.922289 4.99986C1.31861 4.4604 1.76055 3.96011 2.24065 3.50769C2.84846 2.93528 3.51671 2.44061 4.22726 2.03753C4.82709 1.69697 5.45745 1.42145 6.10618 1.21611C5.34649 1.98344 4.87491 3.05052 4.87491 4.23057C4.87491 6.56727 6.72198 8.4614 9 8.4614C11.278 8.4614 13.1248 6.56727 13.1248 4.23057C13.1248 3.05052 12.6535 1.98348 11.8938 1.21611C12.5425 1.42145 13.1732 1.69697 13.773 2.03753C14.4833 2.44065 15.1518 2.93528 15.7593 3.50769C16.2394 3.96011 16.6816 4.4604 17.0777 4.99986C16.6816 5.53902 16.2394 6.03932 15.7594 6.49231Z" transform="translate(1 5)" fill="#333333"/>
<circle cx="4" cy="4" r="4" transform="translate(6 5)" fill="#333333"/>
<path d="M2.62519 7.92276e-08C1.17555 7.92276e-08 1.02997e-07 1.2054 1.02997e-07 2.69219C1.02997e-07 2.9046 0.168082 3.0767 0.375187 3.0767C0.582293 3.0767 0.750375 2.9046 0.750375 2.69219C0.750375 1.63188 1.59138 0.76932 2.62519 0.76932C2.83229 0.76932 3.00037 0.596929 3.00037 0.384516C3.00037 0.172102 2.83229 7.92276e-08 2.62519 7.92276e-08Z" transform="translate(7.37476 6.53833)" fill="white"/>
</svg>
